<svg width="1024" height="1024" viewBox="0 0 1024 1024" fill="none" xmlns="http://www.w3.org/2000/svg">
<mask id="path-1-outside-1_1_2" maskUnits="userSpaceOnUse" x="236" y="156" width="616" height="705" fill="black">
<rect fill="white" x="236" y="156" width="616" height="705"/>
<path d="M632.88 166.52H753.84L841.2 253.88V793.4H719.28L632.88 707V166.52ZM829.68 781.88V258.68L749.04 178.04H643.44V702.2L724.08 781.88H829.68ZM454.32 253.88L455.28 594.68L711.6 851H430.32L246 665.72V166.52H366.96L454.32 253.88ZM435.12 839.48H684.72L443.76 599.48L442.8 258.68L362.16 178.04H257.52V660.92L435.12 839.48Z"/>
</mask>
<path d="M632.88 166.52H753.84L841.2 253.88V793.4H719.28L632.88 707V166.52ZM829.68 781.88V258.68L749.04 178.04H643.44V702.2L724.08 781.88H829.68ZM454.32 253.88L455.28 594.68L711.6 851H430.32L246 665.72V166.52H366.96L454.32 253.88ZM435.12 839.48H684.72L443.76 599.48L442.8 258.68L362.16 178.04H257.52V660.92L435.12 839.48Z" fill="black"/>
<path d="M632.88 166.52V156.52H622.88V166.52H632.88ZM753.84 166.52L760.911 159.449L757.982 156.52H753.84V166.52ZM841.2 253.88H851.2V249.738L848.271 246.809L841.2 253.88ZM841.2 793.4V803.4H851.2V793.4H841.2ZM719.28 793.4L712.209 800.471L715.138 803.4H719.28V793.4ZM632.88 707H622.88V711.142L625.809 714.071L632.88 707ZM829.68 781.88V791.88H839.68V781.88H829.68ZM829.68 258.68H839.68V254.538L836.751 251.609L829.68 258.68ZM749.04 178.04L756.111 170.969L753.182 168.04H749.04V178.04ZM643.44 178.04V168.04H633.44V178.04H643.44ZM643.44 702.2H633.44V706.377L636.411 709.313L643.44 702.2ZM724.08 781.88L717.051 788.993L719.973 791.88H724.08V781.88ZM454.32 253.88L464.32 253.852L464.308 249.726L461.391 246.809L454.32 253.88ZM455.28 594.68L445.28 594.708L445.292 598.834L448.209 601.751L455.28 594.68ZM711.6 851V861H735.742L718.671 843.929L711.6 851ZM430.32 851L423.231 858.053L426.163 861H430.32V851ZM246 665.72H236V669.847L238.911 672.773L246 665.72ZM246 166.52V156.52H236V166.52H246ZM366.96 166.52L374.031 159.449L371.102 156.52H366.96V166.52ZM435.12 839.48L428.03 846.532L430.962 849.48H435.12V839.48ZM684.72 839.48V849.48H708.93L691.777 832.395L684.72 839.48ZM443.76 599.48L433.76 599.508L433.772 603.645L436.703 606.565L443.76 599.48ZM442.8 258.68L452.8 258.652L452.788 254.526L449.871 251.609L442.8 258.68ZM362.16 178.04L369.231 170.969L366.302 168.04H362.16V178.04ZM257.52 178.04V168.04H247.52V178.04H257.52ZM257.52 660.92H247.52V665.046L250.43 667.972L257.52 660.92ZM632.88 166.52V176.52H753.84V166.52V156.52H632.88V166.52ZM753.84 166.52L746.769 173.591L834.129 260.951L841.2 253.88L848.271 246.809L760.911 159.449L753.84 166.52ZM841.2 253.88H831.2V793.4H841.2H851.2V253.88H841.2ZM841.2 793.4V783.4H719.28V793.4V803.4H841.2V793.4ZM719.28 793.4L726.351 786.329L639.951 699.929L632.88 707L625.809 714.071L712.209 800.471L719.28 793.4ZM632.88 707H642.88V166.52H632.88H622.88V707H632.88ZM829.68 781.88H839.68V258.68H829.68H819.68V781.88H829.68ZM829.68 258.68L836.751 251.609L756.111 170.969L749.04 178.04L741.969 185.111L822.609 265.751L829.68 258.68ZM749.04 178.04V168.04H643.44V178.04V188.04H749.04V178.04ZM643.44 178.04H633.44V702.2H643.44H653.44V178.04H643.44ZM643.44 702.2L636.411 709.313L717.051 788.993L724.08 781.88L731.109 774.767L650.469 695.087L643.44 702.2ZM724.08 781.88V791.88H829.68V781.88V771.88H724.08V781.88ZM454.32 253.88L444.32 253.908L445.28 594.708L455.28 594.68L465.28 594.652L464.32 253.852L454.32 253.88ZM455.28 594.68L448.209 601.751L704.529 858.071L711.6 851L718.671 843.929L462.351 587.609L455.28 594.68ZM711.6 851V841H430.32V851V861H711.6V851ZM430.32 851L437.409 843.947L253.089 658.667L246 665.72L238.911 672.773L423.231 858.053L430.32 851ZM246 665.72H256V166.52H246H236V665.72H246ZM246 166.52V176.52H366.96V166.52V156.52H246V166.52ZM366.96 166.52L359.889 173.591L447.249 260.951L454.32 253.88L461.391 246.809L374.031 159.449L366.96 166.52ZM435.12 839.48V849.48H684.72V839.48V829.48H435.12V839.48ZM684.72 839.48L691.777 832.395L450.817 592.395L443.76 599.48L436.703 606.565L677.663 846.565L684.72 839.48ZM443.76 599.48L453.76 599.452L452.8 258.652L442.8 258.68L432.8 258.708L433.76 599.508L443.76 599.48ZM442.8 258.68L449.871 251.609L369.231 170.969L362.16 178.04L355.089 185.111L435.729 265.751L442.8 258.68ZM362.16 178.04V168.04H257.52V178.04V188.04H362.16V178.04ZM257.52 178.04H247.52V660.92H257.52H267.52V178.04H257.52ZM257.52 660.92L250.43 667.972L428.03 846.532L435.12 839.48L442.21 832.428L264.61 653.868L257.52 660.92Z" fill="black" mask="url(#path-1-outside-1_1_2)"/>
<mask id="path-3-outside-2_1_2" maskUnits="userSpaceOnUse" x="158" y="206" width="634" height="723" fill="black">
<rect fill="white" x="158" y="206" width="634" height="723"/>
<path d="M683.16 231.04L766.68 314.56V846.4H653.4L569.88 762.88V231.04H683.16ZM379.8 314.56L380.76 656.32L629.4 904H364.44L183 722.56V231.04H296.28L379.8 314.56Z"/>
</mask>
<path d="M683.16 231.04L766.68 314.56V846.4H653.4L569.88 762.88V231.04H683.16ZM379.8 314.56L380.76 656.32L629.4 904H364.44L183 722.56V231.04H296.28L379.8 314.56Z" fill="#DC2626"/>
<path d="M683.16 231.04L700.838 213.362L693.515 206.04H683.16V231.04ZM766.68 314.56H791.68V304.205L784.358 296.882L766.68 314.56ZM766.68 846.4V871.4H791.68V846.4H766.68ZM653.4 846.4L635.722 864.078L643.045 871.4H653.4V846.4ZM569.88 762.88H544.88V773.235L552.202 780.558L569.88 762.88ZM569.88 231.04V206.04H544.88V231.04H569.88ZM379.8 314.56L404.8 314.49L404.771 304.176L397.478 296.882L379.8 314.56ZM380.76 656.32L355.76 656.39L355.789 666.733L363.117 674.032L380.76 656.32ZM629.4 904V929H689.921L647.043 886.288L629.4 904ZM364.44 904L346.762 921.678L354.085 929H364.44V904ZM183 722.56H158V732.915L165.322 740.238L183 722.56ZM183 231.04V206.04H158V231.04H183ZM296.28 231.04L313.958 213.362L306.635 206.04H296.28V231.04ZM683.16 231.04L665.482 248.718L749.002 332.238L766.68 314.56L784.358 296.882L700.838 213.362L683.16 231.04ZM766.68 314.56H741.68V846.4H766.68H791.68V314.56H766.68ZM766.68 846.4V821.4H653.4V846.4V871.4H766.68V846.4ZM653.4 846.4L671.078 828.722L587.558 745.202L569.88 762.88L552.202 780.558L635.722 864.078L653.4 846.4ZM569.88 762.88H594.88V231.04H569.88H544.88V762.88H569.88ZM569.88 231.04V256.04H683.16V231.04V206.04H569.88V231.04ZM379.8 314.56L354.8 314.63L355.76 656.39L380.76 656.32L405.76 656.25L404.8 314.49L379.8 314.56ZM380.76 656.32L363.117 674.032L611.757 921.712L629.4 904L647.043 886.288L398.403 638.608L380.76 656.32ZM629.4 904V879H364.44V904V929H629.4V904ZM364.44 904L382.118 886.322L200.678 704.882L183 722.56L165.322 740.238L346.762 921.678L364.44 904ZM183 722.56H208V231.04H183H158V722.56H183ZM183 231.04V256.04H296.28V231.04V206.04H183V231.04ZM296.28 231.04L278.602 248.718L362.122 332.238L379.8 314.56L397.478 296.882L313.958 213.362L296.28 231.04Z" fill="black" mask="url(#path-3-outside-2_1_2)"/>
</svg>
